# xmcd
#
# Track frame offsets: 
#        150
#        9715
#        26425
#        47172
#        59697
#        69630
#        91817
#        107116
#        121713
#        141627
#        158080
#        177914
#        200812
#
# Disc length: 2975 seconds
#
# Revision: 0
# Processed by: cddbd v1.5.2PL0 Copyright (c) Steve Scherf et al.
# Submitted via: ExactAudioCopy v0.95a5
#
DISCID=ba0b9d0d
DTITLE=J.D. Sumner and The Stamps - Treasury Of Memories
DYEAR=2005
DGENRE=Gospel
TTITLE0=Give The World A Smile
TTITLE1=You'll Never Walk Alone
TTITLE2=The Farmer and The Lord
TTITLE3=The Old Country Church
TTITLE4=Sweet Sweet Spirit
TTITLE5=If I Can Help Somebody
TTITLE6=I Can Feel The Touch
TTITLE7=I've Got To Walk That Lonesome Road
TTITLE8=The Night Before Easter
TTITLE9=Rainbow Of Love
TTITLE10=I Just Steal Away
TTITLE11=Old Man Death
TTITLE12=The Lord Still Lives In This Old House
EXTD=
EXTT0=
EXTT1=
EXTT2=
EXTT3=
EXTT4=
EXTT5=
EXTT6=
EXTT7=
EXTT8=
EXTT9=
EXTT10=
EXTT11=
EXTT12=
PLAYORDER=
